%
M48
M72
T01C0.03150
T02C0.03200
T03C0.03937
T04C0.04000
T05C0.04724
T06C0.05200
%
T01
X76500Y96500
X76500Y106500
X76500Y116500
X86500Y171500
X96500Y171500
X106500Y171500
T02
X131500Y156500
X151500Y161500
X151500Y171500
X151500Y181500
X131500Y186500
X181500Y181500
X181500Y171500
X181500Y161500
X201500Y156500
X201500Y186500
X111500Y146500
X111500Y136500
X81500Y136500
X81500Y146500
X296500Y151500
X296500Y176500
X296500Y186500
X296500Y121500
T03
X276500Y156500
X266500Y156500
X256500Y156500
X246500Y156500
X236500Y156500
X231500Y56500
X221500Y56500
X241500Y56500
X251500Y56500
X261500Y56500
X271500Y56500
X281500Y56500
T04
X273700Y35400
X299300Y35400
X299300Y17600
X273700Y17600
X234300Y17600
X208700Y17600
X208700Y35400
X234300Y35400
X76500Y31500
X76500Y41500
X76500Y51500
X46500Y76500
X46500Y86500
X46500Y96500
X246500Y171500
X256500Y171500
X266500Y171500
X276500Y171500
T05
X171500Y121500
X171500Y111500
X171500Y101500
X171500Y91500
X171500Y81500
X171500Y71500
X171500Y61500
X171500Y51500
X171500Y41500
X171500Y31500
X171500Y21500
X171500Y11500
X126500Y46500
X126500Y56500
X111500Y51500
X111500Y41500
X111500Y31500
X111500Y21500
X111500Y11500
X111500Y61500
X111500Y71500
X111500Y81500
X111500Y91500
X111500Y101500
X111500Y111500
X111500Y121500
X126500Y96500
X126500Y86500
T06
X26500Y31700
X26500Y51400
X26500Y121700
X26500Y141400
X26500Y161700
X26500Y181400
M30
