G75*
%MOIN*%
%OFA0B0*%
%FSLAX25Y25*%
%IPPOS*%
%LPD*%
%AMOC8*
5,1,8,0,0,1.08239X$1,22.5*
%
%ADD10C,0.00000*%
%ADD11C,0.06000*%
%ADD12OC8,0.05200*%
%ADD13OC8,0.07600*%
%ADD14C,0.07800*%
%ADD15C,0.07087*%
%ADD16C,0.05150*%
%ADD17C,0.05600*%
%ADD18C,0.05200*%
D10*
X0001500Y0001500D02*
X0001500Y0200201D01*
X0321421Y0200201D01*
X0321421Y0001500D01*
X0001500Y0001500D01*
D11*
X0073500Y0031500D02*
X0079500Y0031500D01*
X0079500Y0041500D02*
X0073500Y0041500D01*
X0073500Y0051500D02*
X0079500Y0051500D01*
X0049500Y0076500D02*
X0043500Y0076500D01*
X0043500Y0086500D02*
X0049500Y0086500D01*
X0049500Y0096500D02*
X0043500Y0096500D01*
X0205700Y0035400D02*
X0211700Y0035400D01*
X0231300Y0035400D02*
X0237300Y0035400D01*
X0237300Y0017600D02*
X0231300Y0017600D01*
X0211700Y0017600D02*
X0205700Y0017600D01*
X0270700Y0017600D02*
X0276700Y0017600D01*
X0296300Y0017600D02*
X0302300Y0017600D01*
X0302300Y0035400D02*
X0296300Y0035400D01*
X0276700Y0035400D02*
X0270700Y0035400D01*
X0266500Y0168500D02*
X0266500Y0174500D01*
X0256500Y0174500D02*
X0256500Y0168500D01*
X0246500Y0168500D02*
X0246500Y0174500D01*
X0276500Y0174500D02*
X0276500Y0168500D01*
D12*
X0296500Y0176500D03*
X0296500Y0186500D03*
X0296500Y0151500D03*
X0296500Y0121500D03*
X0201500Y0156500D03*
X0201500Y0186500D03*
X0131500Y0186500D03*
X0131500Y0156500D03*
X0111500Y0146500D03*
X0111500Y0136500D03*
X0081500Y0136500D03*
X0081500Y0146500D03*
D13*
X0221500Y0056500D03*
X0231500Y0056500D03*
X0241500Y0056500D03*
X0251500Y0056500D03*
X0261500Y0056500D03*
X0271500Y0056500D03*
X0281500Y0056500D03*
X0276500Y0156500D03*
X0266500Y0156500D03*
X0256500Y0156500D03*
X0246500Y0156500D03*
X0236500Y0156500D03*
D14*
X0030400Y0161700D02*
X0022600Y0161700D01*
X0022600Y0181400D02*
X0030400Y0181400D01*
X0030400Y0141400D02*
X0022600Y0141400D01*
X0022600Y0121700D02*
X0030400Y0121700D01*
X0030400Y0051400D02*
X0022600Y0051400D01*
X0022600Y0031700D02*
X0030400Y0031700D01*
D15*
X0107957Y0031500D02*
X0115043Y0031500D01*
X0115043Y0021500D02*
X0107957Y0021500D01*
X0107957Y0011500D02*
X0115043Y0011500D01*
X0115043Y0041500D02*
X0107957Y0041500D01*
X0107957Y0051500D02*
X0115043Y0051500D01*
X0126500Y0046500D02*
X0133587Y0046500D01*
X0133587Y0056500D02*
X0126500Y0056500D01*
X0115043Y0061500D02*
X0107957Y0061500D01*
X0107957Y0071500D02*
X0115043Y0071500D01*
X0115043Y0081500D02*
X0107957Y0081500D01*
X0107957Y0091500D02*
X0115043Y0091500D01*
X0126500Y0086500D02*
X0133587Y0086500D01*
X0133587Y0096500D02*
X0126500Y0096500D01*
X0115043Y0101500D02*
X0107957Y0101500D01*
X0107957Y0111500D02*
X0115043Y0111500D01*
X0115043Y0121500D02*
X0107957Y0121500D01*
X0167957Y0121500D02*
X0175043Y0121500D01*
X0175043Y0111500D02*
X0167957Y0111500D01*
X0167957Y0101500D02*
X0175043Y0101500D01*
X0175043Y0091500D02*
X0167957Y0091500D01*
X0167957Y0081500D02*
X0175043Y0081500D01*
X0175043Y0071500D02*
X0167957Y0071500D01*
X0167957Y0061500D02*
X0175043Y0061500D01*
X0175043Y0051500D02*
X0167957Y0051500D01*
X0167957Y0041500D02*
X0175043Y0041500D01*
X0175043Y0031500D02*
X0167957Y0031500D01*
X0167957Y0021500D02*
X0175043Y0021500D01*
X0175043Y0011500D02*
X0167957Y0011500D01*
D16*
X0079075Y0096500D02*
X0073925Y0096500D01*
X0073925Y0106500D02*
X0079075Y0106500D01*
X0079075Y0116500D02*
X0073925Y0116500D01*
D17*
X0086500Y0168700D02*
X0086500Y0174300D01*
X0096500Y0174300D02*
X0096500Y0168700D01*
X0106500Y0168700D02*
X0106500Y0174300D01*
D18*
X0146300Y0171500D02*
X0151500Y0171500D01*
X0151500Y0161500D02*
X0146300Y0161500D01*
X0146300Y0181500D02*
X0151500Y0181500D01*
X0181500Y0181500D02*
X0186700Y0181500D01*
X0186700Y0171500D02*
X0181500Y0171500D01*
X0181500Y0161500D02*
X0186700Y0161500D01*
M02*
